<svg version="1.1" id="Icons" xmlns="http://www.w3.org/2000/svg" xmlns:xlink="http://www.w3.org/1999/xlink" x="0px" y="0px"
     width="31.5px" height="31.5px" viewBox="34.3 34.3 31.5 31.5" style="enable-background:new 34.3 34.3 31.5 31.5;"
     xml:space="preserve">
<style type="text/css">
<![CDATA[
    .st0{fill:#4C66A4;}
]]>
</style>
<path id="Facebook__x28_alt_x29_" class="st0" d="M65.8,39.5c0-2.8-2.5-5.3-5.3-5.3h-21c-2.8,0-5.3,2.5-5.3,5.3v21
    c0,2.8,2.5,5.3,5.3,5.3H50V53.8h-3.8v-5.2H50v-2c0-3.5,2.6-6.7,5.9-6.7h4.2v5.3h-4.2c-0.5,0-1,0.6-1,1.4v2.1h5.3v5.2h-5.3v11.9h5.6
    c2.8,0,5.3-2.5,5.3-5.3V39.5z"/>
</svg>